<svg width="512" height="512" viewBox="0 0 512 512" xmlns="http://www.w3.org/2000/svg">
  <defs>
    <linearGradient id="bgGradient" x1="0%" y1="0%" x2="100%" y2="100%">
      <stop offset="0%" style="stop-color:#E2E8F0;stop-opacity:1" />
      <stop offset="100%" style="stop-color:#CBD5E1;stop-opacity:1" />
    </linearGradient>
    <linearGradient id="letterGradient" x1="0%" y1="0%" x2="100%" y2="100%">
      <stop offset="0%" style="stop-color:#3B82F6;stop-opacity:1" />
      <stop offset="100%" style="stop-color:#2563EB;stop-opacity:1" />
    </linearGradient>
  </defs>
  
  <!-- Background -->
  <rect width="512" height="512" rx="90" fill="url(#bgGradient)"/>
  
  <!-- Custom drawn BR with modern sans-serif style -->
  <g transform="translate(256, 256)">
    <!-- B -->
    <path d="M -140 -140 L -140 140 L -20 140 C 30 140 70 100 70 50 C 70 15 50 -15 20 -25 C 50 -35 70 -65 70 -100 C 70 -130 30 -140 -20 -140 Z M -80 -90 L -30 -90 C -5 -90 15 -75 15 -50 C 15 -25 -5 -10 -30 -10 L -80 -10 Z M -80 40 L -30 40 C -5 40 15 55 15 80 C 15 105 -5 90 -30 90 L -80 90 Z" 
          fill="url(#letterGradient)"/>
    
    <!-- R -->
    <path d="M 50 -140 L 50 140 M 50 -140 L 130 -140 C 170 -140 190 -115 190 -80 C 190 -45 170 -20 130 -20 L 50 -20 M 130 -20 L 200 140" 
          fill="none" 
          stroke="url(#letterGradient)" 
          stroke-width="55" 
          stroke-linecap="round" 
          stroke-linejoin="round"/>
  </g>
</svg>